# xmcd CD database file
#
# Track frame offsets:
#	150
#	16930
#	33767
#	53837
#	69687
#	91147
#	111110
#	129542
#	148620
#	182430
#	205200
#	232285
#	259050
#	277805
#	294442
#	320935
#
# Disc length: 4770 seconds
#
# Revision: 2
# Processed by: cddbd v1.5.2PL0 Copyright (c) Steve Scherf et al.
# Submitted via: CDex 1.50
#
DISCID=e912a010
DTITLE=Chris Norman - Heartbreaking Hits CD2
DYEAR=2004
DGENRE=Rock
TTITLE0=Some Hearts Are Diamonds
TTITLE1=No Arms Can Ever Hold you
TTITLE2=Woman In Love
TTITLE3=Love Is
TTITLE4=Here Comes The Night
TTITLE5=Wings Of Love
TTITLE6=Give A Little Love
TTITLE7=Hands Tied
TTITLE8=Broken Heroes
TTITLE9=Midnight Lady
TTITLE10=Ordinary Heart
TTITLE11=Sarah (you take my breath away)
TTITLE12=midnight lady (Karaoke)
TTITLE13=Some hearts are diamonds (Karaoke)
TTITLE14=Broken Heroes (Karaoke)
TTITLE15=Daten-CD
EXTD=YEAR: 2004
EXTT0=
EXTT1=
EXTT2=
EXTT3=
EXTT4=
EXTT5=
EXTT6=
EXTT7=
EXTT8=
EXTT9=
EXTT10=
EXTT11=
EXTT12=
EXTT13=
EXTT14=
EXTT15=
PLAYORDER=
